<svg xmlns="http://www.w3.org/2000/svg" width="600" height="400" viewBox="0 0 600 400">
<rect x="219.50" y="143.60" width="161.00" height="82.80" fill="#d9d9d9" stroke="black" stroke-width="2.00"/>
<line x1="20.00" y1="125.20" x2="580.00" y2="125.20" stroke="black" stroke-width="2.00"/>
<line x1="20.00" y1="162.00" x2="580.00" y2="162.00" stroke="#42a5f5" stroke-width="1.00" stroke-dasharray="8,6"/>
<text x="365.00" y="113.20" fill="black" font-size="12.00" font-family="Arial, sans-serif" text-anchor="middle">Ground level</text>
<polygon points="359.00,116.20 371.00,116.20 365.00,125.20" fill="none" stroke="black" stroke-width="1.50"/>
<circle cx="300.00" cy="185.00" r="13.80" fill="white" stroke="black" stroke-width="2.00"/>
<rect x="268.20" y="153.20" width="63.60" height="63.60" fill="none" stroke="#777777" stroke-width="1.20" stroke-dasharray="5,4"/>
<line x1="163.50" y1="133.20" x2="163.50" y2="154.00" stroke="#42a5f5" stroke-width="1.60"/>
<polygon points="159.50,133.20 167.50,133.20 163.50,125.20" fill="#42a5f5" stroke="#42a5f5" stroke-width="1.00"/>
<polygon points="159.50,154.00 167.50,154.00 163.50,162.00" fill="#42a5f5" stroke="#42a5f5" stroke-width="1.00"/>
<text x="155.50" y="143.60" fill="#42a5f5" font-size="13.00" font-family="Arial, sans-serif" text-anchor="end" dominant-baseline="middle">Z_GW = 0.8m</text>
<line x1="328.00" y1="133.20" x2="328.00" y2="163.20" stroke="black" stroke-width="1.60"/>
<polygon points="324.00,133.20 332.00,133.20 328.00,125.20" fill="black" stroke="black" stroke-width="1.00"/>
<polygon points="324.00,163.20 332.00,163.20 328.00,171.20" fill="black" stroke="black" stroke-width="1.00"/>
<text x="336.00" y="148.20" fill="black" font-size="13.00" font-family="Arial, sans-serif" text-anchor="start" dominant-baseline="middle">Z_0 = 1.0m</text>
<line x1="412.50" y1="151.60" x2="412.50" y2="218.40" stroke="black" stroke-width="1.60"/>
<polygon points="408.50,151.60 416.50,151.60 412.50,143.60" fill="black" stroke="black" stroke-width="1.00"/>
<polygon points="408.50,218.40 416.50,218.40 412.50,226.40" fill="black" stroke="black" stroke-width="1.00"/>
<text x="420.50" y="185.00" fill="black" font-size="13.00" font-family="Arial, sans-serif" text-anchor="start" dominant-baseline="middle">H = 1.8m</text>
<line x1="478.50" y1="133.20" x2="478.50" y2="218.40" stroke="black" stroke-width="1.60"/>
<polygon points="474.50,133.20 482.50,133.20 478.50,125.20" fill="black" stroke="black" stroke-width="1.00"/>
<polygon points="474.50,218.40 482.50,218.40 478.50,226.40" fill="black" stroke="black" stroke-width="1.00"/>
<text x="486.50" y="175.80" fill="black" font-size="13.00" font-family="Arial, sans-serif" text-anchor="start" dominant-baseline="middle">Z_b = 2.2m</text>
<line x1="380.50" y1="226.40" x2="500.50" y2="226.40" stroke="black" stroke-width="1.30" stroke-dasharray="8,6"/>
<line x1="229.50" y1="242.40" x2="370.50" y2="242.40" stroke="black" stroke-width="1.60"/>
<polygon points="229.50,237.90 229.50,246.90 219.50,242.40" fill="black" stroke="black" stroke-width="1.00"/>
<polygon points="370.50,237.90 370.50,246.90 380.50,242.40" fill="black" stroke="black" stroke-width="1.00"/>
<text x="300.00" y="258.40" fill="black" font-size="13.00" font-family="Arial, sans-serif" text-anchor="middle">W = 3.5m</text>
<text x="300.00" y="290.40" fill="black" font-size="13.00" font-family="Arial, sans-serif" text-anchor="middle">Section A-A</text>
</svg>