<svg xmlns="http://www.w3.org/2000/svg" width="600" height="400" viewBox="0 0 600 400">
<rect x="242.50" y="119.50" width="115.00" height="161.00" fill="#d9d9d9" stroke="black" stroke-width="2.00"/>
<g transform="translate(285.0,200.0) rotate(0.0)">
<polygon points="0,13.80 30.00,9.20 30.00,-9.20 0,-13.80" fill="white" stroke="black" stroke-width="2"/>
<polygon points="0,12.80 30.00,8.20 30.00,-8.20 0,-12.80" fill="white" stroke="none"/>
<line x1="0" y1="0" x2="30.00" y2="0" stroke="#999999" stroke-width="1" stroke-dasharray="6,6" stroke-opacity="0.5"/>
</g>
<g transform="translate(285.0,200.0) rotate(0.0)">
<rect x="0.00" y="-13.80" width="11.00" height="27.60" fill="white" stroke="black" stroke-width="2.00"/>
<rect x="0.00" y="-17.25" width="4.00" height="34.50" fill="#efefef" stroke="black" stroke-width="1.60"/>
<rect x="7.00" y="-17.25" width="4.00" height="34.50" fill="#efefef" stroke="black" stroke-width="1.60"/>
</g>
<g transform="translate(285.0,200.0) rotate(180.0)">
<rect x="0.00" y="-15.46" width="8.00" height="30.91" fill="#efefef" stroke="black" stroke-width="1.80"/>
</g>
<g transform="translate(285.0,200.0) rotate(-7.016709298534876e-15)">
<rect x="0.00" y="-13.80" width="41.40" height="27.60" fill="white" stroke="black" stroke-width="2.00"/>
</g>
<g transform="translate(315.0,200.0) rotate(0.0)">
<rect x="0.00" y="-9.20" width="11.00" height="18.40" fill="white" stroke="black" stroke-width="2.00"/>
<rect x="0.00" y="-11.50" width="4.00" height="23.00" fill="#efefef" stroke="black" stroke-width="1.60"/>
<rect x="7.00" y="-11.50" width="4.00" height="23.00" fill="#efefef" stroke="black" stroke-width="1.60"/>
</g>
<g transform="translate(326.0,200.0) rotate(0.0)">
<rect x="0.00" y="-9.20" width="27.60" height="18.40" fill="white" stroke="black" stroke-width="2.00"/>
</g>
<g transform="translate(353.6,200.0) rotate(0.0)">
<rect x="0.00" y="-10.30" width="7.36" height="20.61" fill="#efefef" stroke="black" stroke-width="1.80"/>
</g>
<text x="300.00" y="384.00" fill="black" font-size="13.00" font-family="Arial, sans-serif" text-anchor="middle">Plan</text>
<line x1="252.50" y1="314.50" x2="347.50" y2="314.50" stroke="black" stroke-width="1.60"/>
<polygon points="252.50,310.00 252.50,319.00 242.50,314.50" fill="black" stroke="black" stroke-width="1.00"/>
<polygon points="347.50,310.00 347.50,319.00 357.50,314.50" fill="black" stroke="black" stroke-width="1.00"/>
<text x="300.00" y="330.50" fill="black" font-size="13.00" font-family="Arial, sans-serif" text-anchor="middle">L = 2.5 m</text>
<line x1="391.50" y1="127.50" x2="391.50" y2="272.50" stroke="black" stroke-width="1.60"/>
<polygon points="387.50,127.50 395.50,127.50 391.50,119.50" fill="black" stroke="black" stroke-width="1.00"/>
<polygon points="387.50,272.50 395.50,272.50 391.50,280.50" fill="black" stroke="black" stroke-width="1.00"/>
<text x="399.50" y="200.00" fill="black" font-size="13.00" font-family="Arial, sans-serif" text-anchor="start" dominant-baseline="middle">W = 3.5m</text>
</svg>