<svg xmlns="http://www.w3.org/2000/svg" width="600" height="400" viewBox="0 0 600 400">
<line x1="20.00" y1="147.05" x2="580.00" y2="147.05" stroke="black" stroke-width="2.00"/>
<line x1="20.00" y1="183.85" x2="580.00" y2="183.85" stroke="#42a5f5" stroke-width="1.00" stroke-dasharray="8,6"/>
<polygon points="50.00,139.05 62.00,139.05 56.00,147.05" fill="black" stroke="black" stroke-width="1.00"/>
<text x="68.00" y="137.05" fill="black" font-size="12.00" font-family="Arial, sans-serif" text-anchor="start" dominant-baseline="middle">Ground Level</text>
<g transform="translate(293.92293729956725,200.2985469463238) rotate(0.0)">
<polygon points="-50.71,84.05 64.29,84.05 64.29,1.25 64.29,1.25 -50.71,12.57" fill="#d9d9d9" stroke="black" stroke-width="2.00"/>
<path d="M 0 0 A 62.00 62.00 0 0 0 12.10 -1.19" stroke="black" stroke-width="16.49" fill="none" stroke-linecap="butt"/>
<path d="M 0 0 A 62.00 62.00 0 0 0 12.10 -1.19" stroke="white" stroke-width="12.49" fill="none" stroke-linecap="butt"/>
<path d="M 0 0 A 62.00 62.00 0 0 0 12.10 -1.19" stroke="#999999" stroke-width="1" stroke-dasharray="6,6" stroke-opacity="0.5" fill="none"/>
<g transform="translate(0.0,0.0) rotate(0.0)">
<rect x="-57.50" y="-7.25" width="57.50" height="14.49" fill="white" stroke="black" stroke-width="2.00"/>
<polygon points="0,-7.25 -10.35,-8.11 -10.35,8.11 0,7.25" fill="white" stroke="black" stroke-width="2.00"/>
<line x1="-57.50" y1="0.00" x2="0.00" y2="0.00" stroke="#999999" stroke-width="1.00" stroke-dasharray="6,6" stroke-opacity="0.50"/>
</g>
<g transform="translate(12.095599964999952,-1.1913126149997133) rotate(-11.25)">
<polygon points="0,-7.25 10.35,-8.11 10.35,8.11 0,7.25" fill="white" stroke="black" stroke-width="2.00"/>
<line x1="0.00" y1="0.00" x2="10.35" y2="0.00" stroke="#999999" stroke-width="1.00" stroke-dasharray="6,6" stroke-opacity="0.50"/>
</g>
<polygon points="23.66,3.90 73.29,-5.98 70.46,-20.19 20.83,-10.32" fill="white" stroke="black" stroke-width="2"/>
<line x1="22.25" y1="-3.21" x2="71.87" y2="-13.08" stroke="grey" stroke-width="1" stroke-dasharray="6,6" stroke-opacity="0.5"/>
<line x1="6.79" y1="6.91" x2="48.79" y2="6.91" stroke="#d32f2f" stroke-width="1.50" stroke-dasharray="6,4"/>
<polygon points="62.79,6.91 48.79,11.91 48.79,1.91" fill="#d32f2f" stroke="#d32f2f" stroke-width="1.00"/>
<text x="74.79" y="6.91" fill="#d32f2f" font-size="11.00" font-family="Arial, sans-serif" text-anchor="middle" dominant-baseline="middle">T_x</text>
<line x1="6.79" y1="6.91" x2="6.79" y2="48.91" stroke="#d32f2f" stroke-width="1.50" stroke-dasharray="6,4"/>
<polygon points="6.79,62.91 1.79,48.91 11.79,48.91" fill="#d32f2f" stroke="#d32f2f" stroke-width="1.00"/>
<text x="10.08" y="74.45" fill="#d32f2f" font-size="11.00" font-family="Arial, sans-serif" text-anchor="middle" dominant-baseline="middle">T_z</text>
<line x1="6.79" y1="6.91" x2="13.45" y2="74.58" stroke="#d32f2f" stroke-width="1.50"/>
<polygon points="14.82,88.52 8.48,75.07 18.43,74.09" fill="#d32f2f" stroke="#d32f2f" stroke-width="1.00"/>
<text x="21.48" y="98.50" fill="#d32f2f" font-size="11.00" font-family="Arial, sans-serif" text-anchor="middle" dominant-baseline="middle">T</text>
</g>
<line x1="193.21" y1="155.05" x2="193.21" y2="175.85" stroke="#42a5f5" stroke-width="1.60"/>
<polygon points="189.21,155.05 197.21,155.05 193.21,147.05" fill="#42a5f5" stroke="#42a5f5" stroke-width="1.00"/>
<polygon points="189.21,175.85 197.21,175.85 193.21,183.85" fill="#42a5f5" stroke="#42a5f5" stroke-width="1.00"/>
<text x="185.21" y="165.45" fill="#42a5f5" font-size="13.00" font-family="Arial, sans-serif" text-anchor="end" dominant-baseline="middle">Z_GW = 0.8m</text>
<line x1="293.92" y1="155.05" x2="293.92" y2="185.05" stroke="black" stroke-width="1.60"/>
<polygon points="289.92,155.05 297.92,155.05 293.92,147.05" fill="black" stroke="black" stroke-width="1.00"/>
<polygon points="289.92,185.05 297.92,185.05 293.92,193.05" fill="black" stroke="black" stroke-width="1.00"/>
<text x="301.92" y="170.05" fill="black" font-size="13.00" font-family="Arial, sans-serif" text-anchor="start" dominant-baseline="middle">Z_0 = 1.0m</text>
<line x1="388.21" y1="209.55" x2="388.21" y2="276.35" stroke="black" stroke-width="1.60"/>
<polygon points="384.21,209.55 392.21,209.55 388.21,201.55" fill="black" stroke="black" stroke-width="1.00"/>
<polygon points="384.21,276.35 392.21,276.35 388.21,284.35" fill="black" stroke="black" stroke-width="1.00"/>
<text x="396.21" y="242.95" fill="black" font-size="13.00" font-family="Arial, sans-serif" text-anchor="start" dominant-baseline="middle">H = 1.8m</text>
<line x1="454.21" y1="155.05" x2="454.21" y2="276.35" stroke="black" stroke-width="1.60"/>
<polygon points="450.21,155.05 458.21,155.05 454.21,147.05" fill="black" stroke="black" stroke-width="1.00"/>
<polygon points="450.21,276.35 458.21,276.35 454.21,284.35" fill="black" stroke="black" stroke-width="1.00"/>
<text x="462.21" y="215.70" fill="black" font-size="13.00" font-family="Arial, sans-serif" text-anchor="start" dominant-baseline="middle">Z_b = 2.3m</text>
<line x1="253.21" y1="330.76" x2="348.21" y2="330.76" stroke="black" stroke-width="1.60"/>
<polygon points="253.21,326.26 253.21,335.26 243.21,330.76" fill="black" stroke="black" stroke-width="1.00"/>
<polygon points="348.21,326.26 348.21,335.26 358.21,330.76" fill="black" stroke="black" stroke-width="1.00"/>
<text x="300.71" y="348.76" fill="black" font-size="13.00" font-family="Arial, sans-serif" text-anchor="middle">L = 2.5m</text>
<text x="300.00" y="384.00" fill="black" font-size="13.00" font-family="Arial, sans-serif" text-anchor="middle">Vertical Upturn Bend</text>
</svg>